<?xml version="1.0" encoding="UTF-8"?>
<svg xmlns="http://www.w3.org/2000/svg" version="1.1" viewBox="0 0 573.9 537.6">
  <defs>
    <style>
      .cls-1 {
        fill: #fff;
      }
    </style>
  </defs>
  <!-- Generator: Adobe Illustrator 28.6.0, SVG Export Plug-In . SVG Version: 1.2.0 Build 709)  -->
  <g>
    <g id="Capa_1">
      <g>
        <path class="cls-1" d="M28.6,123.3L0,1.9,479.7,0l28.6,121.4-33.2.2-19-80.7-413.2,1.4,19,80.9-33.2.2Z"/>
        <path class="cls-1" d="M296.1,256.3h-31.2c-.9,0-1.5-.7-1.4-1.6l6-71.3c.2-1.8-2.4-2.1-3.3-.4l-35.8,72.1c-.3.7-1.1,1.2-1.8,1.2h-21.3c-.7,0-1.3-.5-1.4-1.2l-10.3-72.1c-.2-1.8-2.9-1.5-3.4.4l-19.2,71.3c-.2.9-1.1,1.5-2,1.5h-31.2c-1,0-1.7-.9-1.3-1.9l42-137.5c.3-.9,1.1-1.5,2-1.5h36.1c.7,0,1.3.5,1.4,1.2l9.1,69.8c.2,1.6,2.5,1.6,3.3,0l33.1-69.7c.3-.7,1.1-1.2,1.8-1.2h36.3c.9,0,1.5.7,1.4,1.5l-6.7,137.5c0,1-1,1.9-2,1.9Z"/>
        <path class="cls-1" d="M404.2,200.9l-5-32.8c-.3-1.6-2.6-1.6-3.4,0l-16.7,32.9-16.4,32.3-11.4,22.5c-.4.7-1.1,1.2-1.9,1.2h-35.1c-1.2,0-1.8-1.2-1.2-2.4l76-137.3c.5-.9,1.4-1.4,2.3-1.4h30.5c.8,0,1.5.5,1.6,1.3l27.5,137.5c.2,1.1-.8,2.4-2,2.4h-34.8c-.9,0-1.6-.6-1.8-1.5l-3.4-22.3-4.9-32.3Z"/>
        <path class="cls-1" d="M244.7,385c-1.1,6.2-4.2,18-12.7,27.8-10,11.6-24.6,17.4-43.4,17.4-15.7,0-27.2-4.1-34.3-12.1-3.1-3.6-7.4-10.6-8.1-21.8,0-.9.7-1.9,1.7-2.1l33.3-6.6c.9-.2,1.7.4,1.8,1.2,1.1,10,9.1,10.5,10.8,10.5,7.9,0,14-6.7,15.1-12.9,1.2-6.8-3.7-9.1-21.7-17.5l-1.5-.7c-8.5-3.8-31.2-13.9-26.5-40.5,5-28.3,32.6-43.6,56-43.6,4.4,0,12.6.6,20.4,4.1,5.5,2.6,17,9.7,16.8,24.7,0,.9-.7,1.7-1.6,2l-31.1,7.4c-.8.2-1.6-.2-1.8-.9-.9-3.4-3.1-6.3-9.3-6.3-5.7,0-12.2,3.9-13.3,10.4-1.1,6.1,2.3,7.8,24.6,19,21.3,10.7,28.3,22,25.1,40.5Z"/>
        <path class="cls-1" d="M371.6,372.2l-5-32.8c-.3-1.6-2.6-1.6-3.4,0l-16.7,32.9-16.4,32.3-11.4,22.5c-.4.7-1.1,1.2-1.9,1.2h-35.1c-1.2,0-1.8-1.2-1.2-2.4l76-137.3c.5-.9,1.4-1.4,2.3-1.4h30.5c.8,0,1.4.5,1.6,1.3l27.5,137.5c.2,1.1-.8,2.4-2.1,2.4h-34.8c-.9,0-1.6-.6-1.8-1.5l-3.4-22.3-4.9-32.3Z"/>
        <path class="cls-1" d="M545.3,414.3l28.6,121.4-479.7,1.9-28.6-121.4,33.2-.2,19,80.7,413.2-1.4-19-80.9,33.2-.2Z"/>
      </g>
    </g>
  </g>
</svg>